<svg xmlns="http://www.w3.org/2000/svg" xmlns:xlink="http://www.w3.org/1999/xlink" width="500" zoomAndPan="magnify" viewBox="0 0 375 374.999991" height="500" preserveAspectRatio="xMidYMid meet" version="1.0"><defs><g/><linearGradient x1="0" gradientTransform="matrix(0.75, 0, 0, 0.75, 0.0000045, 0)" y1="0" x2="499.999979" gradientUnits="userSpaceOnUse" y2="0" id="8c304e75c5"><stop stop-opacity="1" stop-color="rgb(80.39856%, 100%, 84.698486%)" offset="0"/><stop stop-opacity="1" stop-color="rgb(80.311584%, 99.891663%, 84.757996%)" offset="0.0078125"/><stop stop-opacity="1" stop-color="rgb(80.136108%, 99.676514%, 84.87854%)" offset="0.015625"/><stop stop-opacity="1" stop-color="rgb(79.960632%, 99.461365%, 84.997559%)" offset="0.0234375"/><stop stop-opacity="1" stop-color="rgb(79.786682%, 99.246216%, 85.116577%)" offset="0.03125"/><stop stop-opacity="1" stop-color="rgb(79.611206%, 99.032593%, 85.237122%)" offset="0.0390625"/><stop stop-opacity="1" stop-color="rgb(79.43573%, 98.817444%, 85.35614%)" offset="0.046875"/><stop stop-opacity="1" stop-color="rgb(79.26178%, 98.602295%, 85.476685%)" offset="0.0546875"/><stop stop-opacity="1" stop-color="rgb(79.086304%, 98.387146%, 85.595703%)" offset="0.0625"/><stop stop-opacity="1" stop-color="rgb(78.910828%, 98.171997%, 85.714722%)" offset="0.0703125"/><stop stop-opacity="1" stop-color="rgb(78.736877%, 97.958374%, 85.835266%)" offset="0.078125"/><stop stop-opacity="1" stop-color="rgb(78.561401%, 97.743225%, 85.954285%)" offset="0.0859375"/><stop stop-opacity="1" stop-color="rgb(78.385925%, 97.528076%, 86.073303%)" offset="0.09375"/><stop stop-opacity="1" stop-color="rgb(78.211975%, 97.312927%, 86.193848%)" offset="0.101562"/><stop stop-opacity="1" stop-color="rgb(78.036499%, 97.097778%, 86.312866%)" offset="0.109375"/><stop stop-opacity="1" stop-color="rgb(77.861023%, 96.884155%, 86.431885%)" offset="0.117188"/><stop stop-opacity="1" stop-color="rgb(77.685547%, 96.669006%, 86.552429%)" offset="0.125"/><stop stop-opacity="1" stop-color="rgb(77.511597%, 96.453857%, 86.671448%)" offset="0.132812"/><stop stop-opacity="1" stop-color="rgb(77.336121%, 96.238708%, 86.790466%)" offset="0.140625"/><stop stop-opacity="1" stop-color="rgb(77.160645%, 96.02356%, 86.911011%)" offset="0.148437"/><stop stop-opacity="1" stop-color="rgb(76.986694%, 95.809937%, 87.030029%)" offset="0.15625"/><stop stop-opacity="1" stop-color="rgb(76.811218%, 95.594788%, 87.149048%)" offset="0.164062"/><stop stop-opacity="1" stop-color="rgb(76.635742%, 95.379639%, 87.269592%)" offset="0.171875"/><stop stop-opacity="1" stop-color="rgb(76.461792%, 95.16449%, 87.388611%)" offset="0.179687"/><stop stop-opacity="1" stop-color="rgb(76.286316%, 94.949341%, 87.507629%)" offset="0.1875"/><stop stop-opacity="1" stop-color="rgb(76.11084%, 94.735718%, 87.628174%)" offset="0.195312"/><stop stop-opacity="1" stop-color="rgb(75.93689%, 94.520569%, 87.747192%)" offset="0.203125"/><stop stop-opacity="1" stop-color="rgb(75.761414%, 94.30542%, 87.866211%)" offset="0.210938"/><stop stop-opacity="1" stop-color="rgb(75.585938%, 94.090271%, 87.986755%)" offset="0.21875"/><stop stop-opacity="1" stop-color="rgb(75.410461%, 93.875122%, 88.105774%)" offset="0.226562"/><stop stop-opacity="1" stop-color="rgb(75.236511%, 93.661499%, 88.224792%)" offset="0.234375"/><stop stop-opacity="1" stop-color="rgb(75.061035%, 93.44635%, 88.345337%)" offset="0.242188"/><stop stop-opacity="1" stop-color="rgb(74.885559%, 93.231201%, 88.464355%)" offset="0.25"/><stop stop-opacity="1" stop-color="rgb(74.711609%, 93.016052%, 88.583374%)" offset="0.257812"/><stop stop-opacity="1" stop-color="rgb(74.536133%, 92.800903%, 88.703918%)" offset="0.265625"/><stop stop-opacity="1" stop-color="rgb(74.360657%, 92.58728%, 88.822937%)" offset="0.273437"/><stop stop-opacity="1" stop-color="rgb(74.186707%, 92.372131%, 88.941956%)" offset="0.28125"/><stop stop-opacity="1" stop-color="rgb(74.01123%, 92.156982%, 89.0625%)" offset="0.289062"/><stop stop-opacity="1" stop-color="rgb(73.835754%, 91.941833%, 89.181519%)" offset="0.296875"/><stop stop-opacity="1" stop-color="rgb(73.661804%, 91.726685%, 89.300537%)" offset="0.304687"/><stop stop-opacity="1" stop-color="rgb(73.486328%, 91.513062%, 89.421082%)" offset="0.3125"/><stop stop-opacity="1" stop-color="rgb(73.310852%, 91.297913%, 89.5401%)" offset="0.320312"/><stop stop-opacity="1" stop-color="rgb(73.136902%, 91.082764%, 89.659119%)" offset="0.328125"/><stop stop-opacity="1" stop-color="rgb(72.961426%, 90.867615%, 89.779663%)" offset="0.335937"/><stop stop-opacity="1" stop-color="rgb(72.78595%, 90.652466%, 89.898682%)" offset="0.34375"/><stop stop-opacity="1" stop-color="rgb(72.610474%, 90.438843%, 90.0177%)" offset="0.351562"/><stop stop-opacity="1" stop-color="rgb(72.436523%, 90.223694%, 90.138245%)" offset="0.359375"/><stop stop-opacity="1" stop-color="rgb(72.261047%, 90.008545%, 90.257263%)" offset="0.367187"/><stop stop-opacity="1" stop-color="rgb(72.085571%, 89.793396%, 90.376282%)" offset="0.375"/><stop stop-opacity="1" stop-color="rgb(71.911621%, 89.578247%, 90.496826%)" offset="0.382812"/><stop stop-opacity="1" stop-color="rgb(71.736145%, 89.364624%, 90.615845%)" offset="0.390625"/><stop stop-opacity="1" stop-color="rgb(71.560669%, 89.149475%, 90.734863%)" offset="0.398438"/><stop stop-opacity="1" stop-color="rgb(71.386719%, 88.934326%, 90.855408%)" offset="0.40625"/><stop stop-opacity="1" stop-color="rgb(71.211243%, 88.719177%, 90.974426%)" offset="0.414062"/><stop stop-opacity="1" stop-color="rgb(71.035767%, 88.504028%, 91.093445%)" offset="0.421875"/><stop stop-opacity="1" stop-color="rgb(70.861816%, 88.290405%, 91.213989%)" offset="0.429688"/><stop stop-opacity="1" stop-color="rgb(70.68634%, 88.075256%, 91.333008%)" offset="0.4375"/><stop stop-opacity="1" stop-color="rgb(70.510864%, 87.860107%, 91.452026%)" offset="0.445312"/><stop stop-opacity="1" stop-color="rgb(70.336914%, 87.644958%, 91.572571%)" offset="0.453125"/><stop stop-opacity="1" stop-color="rgb(70.161438%, 87.42981%, 91.691589%)" offset="0.460938"/><stop stop-opacity="1" stop-color="rgb(69.985962%, 87.216187%, 91.810608%)" offset="0.46875"/><stop stop-opacity="1" stop-color="rgb(69.810486%, 87.001038%, 91.931152%)" offset="0.476562"/><stop stop-opacity="1" stop-color="rgb(69.636536%, 86.785889%, 92.050171%)" offset="0.484375"/><stop stop-opacity="1" stop-color="rgb(69.46106%, 86.57074%, 92.169189%)" offset="0.492188"/><stop stop-opacity="1" stop-color="rgb(69.285583%, 86.355591%, 92.289734%)" offset="0.5"/><stop stop-opacity="1" stop-color="rgb(69.111633%, 86.141968%, 92.408752%)" offset="0.507812"/><stop stop-opacity="1" stop-color="rgb(68.936157%, 85.926819%, 92.527771%)" offset="0.515625"/><stop stop-opacity="1" stop-color="rgb(68.760681%, 85.71167%, 92.648315%)" offset="0.523437"/><stop stop-opacity="1" stop-color="rgb(68.586731%, 85.496521%, 92.767334%)" offset="0.53125"/><stop stop-opacity="1" stop-color="rgb(68.411255%, 85.281372%, 92.886353%)" offset="0.539062"/><stop stop-opacity="1" stop-color="rgb(68.235779%, 85.067749%, 93.006897%)" offset="0.546875"/><stop stop-opacity="1" stop-color="rgb(68.061829%, 84.8526%, 93.125916%)" offset="0.554687"/><stop stop-opacity="1" stop-color="rgb(67.886353%, 84.637451%, 93.244934%)" offset="0.5625"/><stop stop-opacity="1" stop-color="rgb(67.710876%, 84.422302%, 93.365479%)" offset="0.570312"/><stop stop-opacity="1" stop-color="rgb(67.536926%, 84.207153%, 93.484497%)" offset="0.578125"/><stop stop-opacity="1" stop-color="rgb(67.36145%, 83.99353%, 93.603516%)" offset="0.585937"/><stop stop-opacity="1" stop-color="rgb(67.185974%, 83.778381%, 93.72406%)" offset="0.59375"/><stop stop-opacity="1" stop-color="rgb(67.010498%, 83.563232%, 93.843079%)" offset="0.601562"/><stop stop-opacity="1" stop-color="rgb(66.836548%, 83.348083%, 93.962097%)" offset="0.609375"/><stop stop-opacity="1" stop-color="rgb(66.661072%, 83.132935%, 94.082642%)" offset="0.617187"/><stop stop-opacity="1" stop-color="rgb(66.485596%, 82.919312%, 94.20166%)" offset="0.625"/><stop stop-opacity="1" stop-color="rgb(66.311646%, 82.704163%, 94.320679%)" offset="0.632812"/><stop stop-opacity="1" stop-color="rgb(66.136169%, 82.489014%, 94.441223%)" offset="0.640625"/><stop stop-opacity="1" stop-color="rgb(65.960693%, 82.273865%, 94.560242%)" offset="0.648437"/><stop stop-opacity="1" stop-color="rgb(65.786743%, 82.058716%, 94.67926%)" offset="0.65625"/><stop stop-opacity="1" stop-color="rgb(65.611267%, 81.845093%, 94.799805%)" offset="0.664062"/><stop stop-opacity="1" stop-color="rgb(65.435791%, 81.629944%, 94.918823%)" offset="0.671875"/><stop stop-opacity="1" stop-color="rgb(65.261841%, 81.414795%, 95.037842%)" offset="0.679687"/><stop stop-opacity="1" stop-color="rgb(65.086365%, 81.199646%, 95.158386%)" offset="0.6875"/><stop stop-opacity="1" stop-color="rgb(64.910889%, 80.984497%, 95.277405%)" offset="0.695312"/><stop stop-opacity="1" stop-color="rgb(64.736938%, 80.770874%, 95.396423%)" offset="0.703125"/><stop stop-opacity="1" stop-color="rgb(64.561462%, 80.555725%, 95.516968%)" offset="0.710937"/><stop stop-opacity="1" stop-color="rgb(64.385986%, 80.340576%, 95.635986%)" offset="0.71875"/><stop stop-opacity="1" stop-color="rgb(64.21051%, 80.125427%, 95.755005%)" offset="0.726562"/><stop stop-opacity="1" stop-color="rgb(64.03656%, 79.910278%, 95.875549%)" offset="0.734375"/><stop stop-opacity="1" stop-color="rgb(63.861084%, 79.696655%, 95.994568%)" offset="0.742187"/><stop stop-opacity="1" stop-color="rgb(63.685608%, 79.481506%, 96.113586%)" offset="0.75"/><stop stop-opacity="1" stop-color="rgb(63.511658%, 79.266357%, 96.234131%)" offset="0.757812"/><stop stop-opacity="1" stop-color="rgb(63.336182%, 79.051208%, 96.353149%)" offset="0.765625"/><stop stop-opacity="1" stop-color="rgb(63.160706%, 78.83606%, 96.472168%)" offset="0.773438"/><stop stop-opacity="1" stop-color="rgb(62.986755%, 78.622437%, 96.592712%)" offset="0.78125"/><stop stop-opacity="1" stop-color="rgb(62.811279%, 78.407288%, 96.711731%)" offset="0.789062"/><stop stop-opacity="1" stop-color="rgb(62.635803%, 78.192139%, 96.83075%)" offset="0.796875"/><stop stop-opacity="1" stop-color="rgb(62.461853%, 77.97699%, 96.951294%)" offset="0.804688"/><stop stop-opacity="1" stop-color="rgb(62.286377%, 77.761841%, 97.070312%)" offset="0.8125"/><stop stop-opacity="1" stop-color="rgb(62.110901%, 77.548218%, 97.189331%)" offset="0.820312"/><stop stop-opacity="1" stop-color="rgb(61.936951%, 77.333069%, 97.309875%)" offset="0.828125"/><stop stop-opacity="1" stop-color="rgb(61.761475%, 77.11792%, 97.428894%)" offset="0.835938"/><stop stop-opacity="1" stop-color="rgb(61.585999%, 76.902771%, 97.547913%)" offset="0.84375"/><stop stop-opacity="1" stop-color="rgb(61.410522%, 76.687622%, 97.668457%)" offset="0.851562"/><stop stop-opacity="1" stop-color="rgb(61.236572%, 76.473999%, 97.787476%)" offset="0.859375"/><stop stop-opacity="1" stop-color="rgb(61.061096%, 76.25885%, 97.906494%)" offset="0.867188"/><stop stop-opacity="1" stop-color="rgb(60.88562%, 76.043701%, 98.027039%)" offset="0.875"/><stop stop-opacity="1" stop-color="rgb(60.71167%, 75.828552%, 98.146057%)" offset="0.882812"/><stop stop-opacity="1" stop-color="rgb(60.536194%, 75.613403%, 98.265076%)" offset="0.890625"/><stop stop-opacity="1" stop-color="rgb(60.360718%, 75.39978%, 98.38562%)" offset="0.898438"/><stop stop-opacity="1" stop-color="rgb(60.186768%, 75.184631%, 98.504639%)" offset="0.90625"/><stop stop-opacity="1" stop-color="rgb(60.011292%, 74.969482%, 98.623657%)" offset="0.914062"/><stop stop-opacity="1" stop-color="rgb(59.835815%, 74.754333%, 98.744202%)" offset="0.921875"/><stop stop-opacity="1" stop-color="rgb(59.661865%, 74.539185%, 98.86322%)" offset="0.929688"/><stop stop-opacity="1" stop-color="rgb(59.486389%, 74.325562%, 98.982239%)" offset="0.9375"/><stop stop-opacity="1" stop-color="rgb(59.310913%, 74.110413%, 99.102783%)" offset="0.945312"/><stop stop-opacity="1" stop-color="rgb(59.136963%, 73.895264%, 99.221802%)" offset="0.953125"/><stop stop-opacity="1" stop-color="rgb(58.961487%, 73.680115%, 99.34082%)" offset="0.960938"/><stop stop-opacity="1" stop-color="rgb(58.786011%, 73.464966%, 99.461365%)" offset="0.96875"/><stop stop-opacity="1" stop-color="rgb(58.610535%, 73.251343%, 99.580383%)" offset="0.976562"/><stop stop-opacity="1" stop-color="rgb(58.436584%, 73.036194%, 99.699402%)" offset="0.984375"/><stop stop-opacity="1" stop-color="rgb(58.261108%, 72.821045%, 99.819946%)" offset="0.992188"/><stop stop-opacity="1" stop-color="rgb(58.085632%, 72.605896%, 99.938965%)" offset="1"/></linearGradient><clipPath id="084e538eee"><path d="M 74 185 L 95.914062 185 L 95.914062 189 L 74 189 Z M 74 185 " clip-rule="nonzero"/></clipPath><clipPath id="d0bb98206b"><path d="M 10.414062 185 L 33 185 L 33 189 L 10.414062 189 Z M 10.414062 185 " clip-rule="nonzero"/></clipPath></defs><rect x="-37.5" fill="url(#8c304e75c5)" width="450" y="-37.499999" height="449.999989"/><path fill="#000000" d="M 52.734375 220.746094 C 34.3125 220.746094 19.324219 205.761719 19.324219 187.34375 C 19.324219 168.921875 34.3125 153.933594 52.734375 153.933594 C 71.15625 153.933594 86.140625 168.921875 86.140625 187.34375 C 86.140625 205.761719 71.15625 220.746094 52.734375 220.746094 Z M 52.734375 157.242188 C 36.136719 157.242188 22.632812 170.746094 22.632812 187.34375 C 22.632812 203.9375 36.136719 217.441406 52.734375 217.441406 C 69.332031 217.441406 82.835938 203.9375 82.835938 187.34375 C 82.835938 170.746094 69.332031 157.242188 52.734375 157.242188 Z M 52.734375 157.242188 " fill-opacity="1" fill-rule="nonzero"/><g clip-path="url(#084e538eee)"><path fill="#000000" d="M 93.914062 185.875 C 87.886719 185.875 81.851562 185.875 75.824219 185.875 C 73.824219 185.875 73.824219 188.976562 75.824219 188.976562 C 81.851562 188.976562 87.886719 188.976562 93.914062 188.976562 C 95.914062 188.976562 95.914062 185.875 93.914062 185.875 Z M 93.914062 185.875 " fill-opacity="1" fill-rule="nonzero"/></g><g clip-path="url(#d0bb98206b)"><path fill="#000000" d="M 30.511719 185.875 C 24.480469 185.875 18.453125 185.875 12.421875 185.875 C 10.421875 185.875 10.421875 188.976562 12.421875 188.976562 C 18.453125 188.976562 24.480469 188.976562 30.511719 188.976562 C 32.511719 188.976562 32.511719 185.875 30.511719 185.875 Z M 30.511719 185.875 " fill-opacity="1" fill-rule="nonzero"/></g><path fill="#000000" d="M 54.71875 228.175781 C 54.71875 222.144531 54.71875 216.113281 54.71875 210.085938 C 54.71875 208.085938 51.617188 208.085938 51.617188 210.085938 C 51.617188 216.113281 51.617188 222.144531 51.617188 228.175781 C 51.617188 230.175781 54.71875 230.175781 54.71875 228.175781 Z M 54.71875 228.175781 " fill-opacity="1" fill-rule="nonzero"/><path fill="#000000" d="M 54.71875 164.773438 C 54.71875 158.742188 54.71875 152.710938 54.71875 146.679688 C 54.71875 144.679688 51.617188 144.679688 51.617188 146.679688 C 51.617188 152.710938 51.617188 158.742188 51.617188 164.773438 C 51.617188 166.773438 54.71875 166.773438 54.71875 164.773438 Z M 54.71875 164.773438 " fill-opacity="1" fill-rule="nonzero"/><g fill="#000000" fill-opacity="1"><g transform="translate(98.023976, 202.003206)"><g><path d="M 24.640625 -35.453125 L 31.875 -11.140625 L 31.96875 -11.140625 L 38.84375 -34.984375 L 45.984375 -34.984375 L 34.15625 0.703125 L 29.140625 0.703125 L 22.1875 -22.1875 L 22.09375 -22.1875 L 15.5 0.703125 L 10.484375 0.703125 L -0.65625 -34.984375 L 6.5 -34.984375 L 13.546875 -11.140625 L 13.640625 -11.140625 L 20.609375 -35.453125 Z M 24.640625 -35.453125 "/></g></g></g><g fill="#000000" fill-opacity="1"><g transform="translate(143.349237, 202.003206)"><g><path d="M 7.5625 -10.34375 C 7.5625 -8.457031 7.960938 -6.960938 8.765625 -5.859375 C 9.578125 -4.765625 10.675781 -4.21875 12.0625 -4.21875 C 13.144531 -4.21875 14.035156 -4.507812 14.734375 -5.09375 C 15.429688 -5.6875 15.992188 -6.429688 16.421875 -7.328125 L 22.421875 -6.359375 C 21.609375 -4.035156 20.28125 -2.269531 18.4375 -1.0625 C 16.601562 0.144531 14.476562 0.75 12.0625 0.75 C 8.6875 0.75 5.945312 -0.347656 3.84375 -2.546875 C 1.75 -4.742188 0.703125 -7.625 0.703125 -11.1875 C 0.703125 -14.925781 1.691406 -17.914062 3.671875 -20.15625 C 5.648438 -22.40625 8.335938 -23.53125 11.734375 -23.53125 C 15.140625 -23.53125 17.789062 -22.429688 19.6875 -20.234375 C 21.59375 -18.035156 22.546875 -14.925781 22.546875 -10.90625 L 22.546875 -10.34375 Z M 16.421875 -14.390625 C 16.210938 -15.804688 15.703125 -16.925781 14.890625 -17.75 C 14.085938 -18.570312 13.144531 -18.984375 12.0625 -18.984375 C 11.039062 -18.984375 10.128906 -18.609375 9.328125 -17.859375 C 8.523438 -17.117188 8 -15.960938 7.75 -14.390625 Z M 16.421875 -14.390625 "/></g></g></g><g fill="#000000" fill-opacity="1"><g transform="translate(166.591766, 202.003206)"><g><path d="M 17.453125 -22.78125 L 23.859375 -22.78125 L 23.859375 0 L 17.453125 0 L 17.453125 -2.09375 L 17.359375 -2.09375 C 16.671875 -1.195312 15.765625 -0.5 14.640625 0 C 13.515625 0.5 12.363281 0.75 11.1875 0.75 C 8.1875 0.75 5.6875 -0.429688 3.6875 -2.796875 C 1.695312 -5.171875 0.703125 -8.078125 0.703125 -11.515625 C 0.703125 -13.640625 1.132812 -15.613281 2 -17.4375 C 2.863281 -19.269531 4.09375 -20.742188 5.6875 -21.859375 C 7.28125 -22.972656 9.082031 -23.53125 11.09375 -23.53125 C 12.269531 -23.53125 13.421875 -23.28125 14.546875 -22.78125 C 15.679688 -22.289062 16.648438 -21.582031 17.453125 -20.65625 Z M 12.625 -17.78125 C 11.164062 -17.78125 9.910156 -17.148438 8.859375 -15.890625 C 7.804688 -14.640625 7.28125 -13.148438 7.28125 -11.421875 C 7.28125 -9.679688 7.804688 -8.175781 8.859375 -6.90625 C 9.910156 -5.644531 11.179688 -5.015625 12.671875 -5.015625 C 14.179688 -5.015625 15.460938 -5.640625 16.515625 -6.890625 C 17.566406 -8.140625 18.09375 -9.648438 18.09375 -11.421875 C 18.09375 -13.179688 17.554688 -14.679688 16.484375 -15.921875 C 15.421875 -17.160156 14.132812 -17.78125 12.625 -17.78125 Z M 12.625 -17.78125 "/></g></g></g><g fill="#000000" fill-opacity="1"><g transform="translate(192.803402, 202.003206)"><g><path d="M 8.8125 -39.359375 L 8.8125 0 L 2.328125 0 L 2.328125 -39.359375 Z M 8.8125 -39.359375 "/></g></g></g><g fill="#000000" fill-opacity="1"><g transform="translate(203.891161, 202.003206)"><g><path d="M 9.609375 -30.484375 L 9.609375 -22.78125 L 13.59375 -22.78125 L 13.59375 -17.3125 L 9.609375 -17.3125 L 9.609375 0 L 3.109375 0 L 3.109375 -17.3125 L 0.875 -17.3125 L 0.875 -22.78125 L 3.109375 -22.78125 L 3.109375 -30.484375 Z M 9.609375 -30.484375 "/></g></g></g><g fill="#000000" fill-opacity="1"><g transform="translate(216.602655, 202.003206)"><g><path d="M 8.8125 -39.359375 L 8.8125 -20.890625 L 8.90625 -20.890625 C 9.625 -21.816406 10.5 -22.488281 11.53125 -22.90625 C 12.570312 -23.320312 13.675781 -23.53125 14.84375 -23.53125 C 17.476562 -23.53125 19.453125 -22.734375 20.765625 -21.140625 C 22.078125 -19.546875 22.734375 -17.203125 22.734375 -14.109375 L 22.734375 0 L 16.25 0 L 16.25 -13.3125 C 16.25 -14.550781 16.113281 -15.519531 15.84375 -16.21875 C 15.582031 -16.914062 15.21875 -17.441406 14.75 -17.796875 C 14.289062 -18.148438 13.597656 -18.328125 12.671875 -18.328125 C 11.335938 -18.328125 10.359375 -17.789062 9.734375 -16.71875 C 9.117188 -15.65625 8.8125 -14.007812 8.8125 -11.78125 L 8.8125 0 L 2.328125 0 L 2.328125 -39.359375 Z M 8.8125 -39.359375 "/></g></g></g><g fill="#000000" fill-opacity="1"><g transform="translate(241.654494, 202.003206)"><g><path d="M 25.703125 -24.3125 C 24.992188 -25.894531 23.9375 -27.21875 22.53125 -28.28125 C 21.125 -29.351562 19.523438 -29.890625 17.734375 -29.890625 C 15.742188 -29.890625 13.988281 -29.273438 12.46875 -28.046875 C 10.957031 -26.828125 9.816406 -25.273438 9.046875 -23.390625 C 8.273438 -21.503906 7.890625 -19.492188 7.890625 -17.359375 C 7.890625 -13.953125 8.816406 -11.054688 10.671875 -8.671875 C 12.523438 -6.296875 14.894531 -5.109375 17.78125 -5.109375 C 19.875 -5.109375 21.691406 -5.875 23.234375 -7.40625 C 24.785156 -8.9375 25.625 -10.816406 25.75 -13.046875 L 18.328125 -13.046875 L 18.328125 -18.609375 L 33.40625 -18.609375 L 33.40625 -17.640625 C 33.40625 -14.015625 32.769531 -10.800781 31.5 -8 C 30.238281 -5.207031 28.410156 -3.019531 26.015625 -1.4375 C 23.617188 0.132812 20.78125 0.921875 17.5 0.921875 C 14.28125 0.921875 11.394531 0.0976562 8.84375 -1.546875 C 6.289062 -3.203125 4.316406 -5.421875 2.921875 -8.203125 C 1.523438 -10.992188 0.828125 -14.046875 0.828125 -17.359375 C 0.828125 -20.816406 1.546875 -23.945312 2.984375 -26.75 C 4.429688 -29.550781 6.460938 -31.78125 9.078125 -33.4375 C 11.691406 -35.09375 14.632812 -35.921875 17.90625 -35.921875 C 20.914062 -35.921875 23.617188 -35.207031 26.015625 -33.78125 C 28.410156 -32.363281 30.316406 -30.289062 31.734375 -27.5625 Z M 25.703125 -24.3125 "/></g></g></g><g fill="#000000" fill-opacity="1"><g transform="translate(275.938398, 202.003206)"><g><path d="M 17.453125 -22.78125 L 23.859375 -22.78125 L 23.859375 0 L 17.453125 0 L 17.453125 -2.09375 L 17.359375 -2.09375 C 16.671875 -1.195312 15.765625 -0.5 14.640625 0 C 13.515625 0.5 12.363281 0.75 11.1875 0.75 C 8.1875 0.75 5.6875 -0.429688 3.6875 -2.796875 C 1.695312 -5.171875 0.703125 -8.078125 0.703125 -11.515625 C 0.703125 -13.640625 1.132812 -15.613281 2 -17.4375 C 2.863281 -19.269531 4.09375 -20.742188 5.6875 -21.859375 C 7.28125 -22.972656 9.082031 -23.53125 11.09375 -23.53125 C 12.269531 -23.53125 13.421875 -23.28125 14.546875 -22.78125 C 15.679688 -22.289062 16.648438 -21.582031 17.453125 -20.65625 Z M 12.625 -17.78125 C 11.164062 -17.78125 9.910156 -17.148438 8.859375 -15.890625 C 7.804688 -14.640625 7.28125 -13.148438 7.28125 -11.421875 C 7.28125 -9.679688 7.804688 -8.175781 8.859375 -6.90625 C 9.910156 -5.644531 11.179688 -5.015625 12.671875 -5.015625 C 14.179688 -5.015625 15.460938 -5.640625 16.515625 -6.890625 C 17.566406 -8.140625 18.09375 -9.648438 18.09375 -11.421875 C 18.09375 -13.179688 17.554688 -14.679688 16.484375 -15.921875 C 15.421875 -17.160156 14.132812 -17.78125 12.625 -17.78125 Z M 12.625 -17.78125 "/></g></g></g><g fill="#000000" fill-opacity="1"><g transform="translate(302.150033, 202.003206)"><g><path d="M 21.015625 -19.953125 C 21.734375 -21.066406 22.6875 -21.941406 23.875 -22.578125 C 25.0625 -23.210938 26.320312 -23.53125 27.65625 -23.53125 C 30.101562 -23.53125 31.921875 -22.753906 33.109375 -21.203125 C 34.296875 -19.660156 34.890625 -17.40625 34.890625 -14.4375 L 34.890625 0 L 28.40625 0 L 28.40625 -12.765625 C 28.40625 -14.554688 28.179688 -15.929688 27.734375 -16.890625 C 27.285156 -17.847656 26.488281 -18.328125 25.34375 -18.328125 C 24.164062 -18.328125 23.289062 -17.789062 22.71875 -16.71875 C 22.144531 -15.65625 21.859375 -13.9375 21.859375 -11.5625 L 21.859375 0 L 15.359375 0 L 15.359375 -13.21875 C 15.359375 -14.925781 15.09375 -16.203125 14.5625 -17.046875 C 14.039062 -17.898438 13.269531 -18.328125 12.25 -18.328125 C 11.226562 -18.328125 10.398438 -17.878906 9.765625 -16.984375 C 9.128906 -16.085938 8.8125 -14.601562 8.8125 -12.53125 L 8.8125 0 L 2.328125 0 L 2.328125 -22.78125 L 8.8125 -22.78125 L 8.8125 -20.75 L 8.90625 -20.75 C 9.5625 -21.644531 10.390625 -22.332031 11.390625 -22.8125 C 12.398438 -23.289062 13.429688 -23.53125 14.484375 -23.53125 C 17.390625 -23.53125 19.566406 -22.335938 21.015625 -19.953125 Z M 21.015625 -19.953125 "/></g></g></g><g fill="#000000" fill-opacity="1"><g transform="translate(339.356641, 202.003206)"><g><path d="M 7.5625 -10.34375 C 7.5625 -8.457031 7.960938 -6.960938 8.765625 -5.859375 C 9.578125 -4.765625 10.675781 -4.21875 12.0625 -4.21875 C 13.144531 -4.21875 14.035156 -4.507812 14.734375 -5.09375 C 15.429688 -5.6875 15.992188 -6.429688 16.421875 -7.328125 L 22.421875 -6.359375 C 21.609375 -4.035156 20.28125 -2.269531 18.4375 -1.0625 C 16.601562 0.144531 14.476562 0.75 12.0625 0.75 C 8.6875 0.75 5.945312 -0.347656 3.84375 -2.546875 C 1.75 -4.742188 0.703125 -7.625 0.703125 -11.1875 C 0.703125 -14.925781 1.691406 -17.914062 3.671875 -20.15625 C 5.648438 -22.40625 8.335938 -23.53125 11.734375 -23.53125 C 15.140625 -23.53125 17.789062 -22.429688 19.6875 -20.234375 C 21.59375 -18.035156 22.546875 -14.925781 22.546875 -10.90625 L 22.546875 -10.34375 Z M 16.421875 -14.390625 C 16.210938 -15.804688 15.703125 -16.925781 14.890625 -17.75 C 14.085938 -18.570312 13.144531 -18.984375 12.0625 -18.984375 C 11.039062 -18.984375 10.128906 -18.609375 9.328125 -17.859375 C 8.523438 -17.117188 8 -15.960938 7.75 -14.390625 Z M 16.421875 -14.390625 "/></g></g></g></svg>